<svg version="1.1" id="Capa_1" xmlns="http://www.w3.org/2000/svg" xmlns:xlink="http://www.w3.org/1999/xlink" x="0" y="0" viewBox="0 0 85 85" style="enable-background:new 0 0 85 85" xml:space="preserve"><style>.st2{fill:#fff}.st3{fill:#033371}.st5{fill:#d91023}.st6{fill:#dd2b1c}.st7{fill:#fbb900}.st10{fill:#85402b}.st12{fill:#007728}</style><circle cx="57.2" cy="46" r="20.7" style="fill:#e8ebec"/><path d="M42.3 9.9c-12 0-22.5 10.7-22.5 22.9 0 10.9 18.6 36.1 22.3 41l.3.3.3-.3c3.7-4.9 22.3-30.1 22.3-41-.2-12.1-10.7-22.9-22.7-22.9z" style="fill:#bdc3d8"/><path class="st2" d="M40.3 10.7c-10.8.1-20.1 10.6-20 22.3.1 10.5 19.4 36.6 19.4 36.6S61 43 60.8 32.5c-.1-11.7-9.7-21.9-20.5-21.8z"/><path class="st3" d="M42.7 8.6c-6.3 0-12.2 2.6-16.7 7.3-4.5 4.6-7 10.7-7 16.8 0 12.5 21.8 40.7 22.8 41.8.4.5 1.3.5 1.8 0 .9-1.2 22.8-29.4 22.8-41.8 0-6.1-2.5-12.2-6.9-16.7-4.6-4.8-10.6-7.4-16.8-7.4zm.2 63.1-.2.3-.2-.3C38.9 67 21.2 43 21.2 32.7c0-11.6 10-21.8 21.4-21.8S64.1 21 64.1 32.7c0 10.3-17.7 34.3-21.2 39z"/><path class="st3" d="M60.8 73.8H24.5c-.6 0-1.1.5-1.1 1.1v.4c0 .6.5 1.1 1.1 1.1h36.3c.6 0 1.1-.5 1.1-1.1v-.4c0-.6-.5-1.1-1.1-1.1z"/><defs><ellipse id="SVGID_1_" cx="42.4" cy="32.6" rx="15.2" ry="16"/></defs><clipPath id="SVGID_2_"><use xlink:href="#SVGID_1_" style="overflow:visible"/></clipPath><g style="clip-path:url(#SVGID_2_)"><path class="st5" d="M19.6 15.8h15.5v33.4H19.6z"/><path class="st2" d="M35.1 15.8h15.5v33.4H35.1z"/><path class="st5" d="M50.5 15.8H66v33.4H50.5z"/><path class="st6" d="M42.8 36.1c.8-.6 1.8-.2 2.4-.9.3-.3.4-.7.3-1.3-.1-.3-.3-.9-.5-1.2h-4.5c-.1.1-.2.4-.3.6-.3.7-.4 1.4.1 1.9.7.7 1.5.3 2.2.7.1.1.2.1.3.2zm-1.7-1.2c-.1 0-.3 0-.2-.2V34.4c-.2-.5.5-1.2 1.1-1.3.5-.1.9 0 1.3.2.2.1.3.2.5.4.1.1.3.3.5.3.3 0 .2-.5 0-.4-.1 0-.1.2-.2.2-.1-.1-.1-.2 0-.3.1-.2.4-.2.6 0 .3.2.4.7 0 1.1-.3.3-.9.1-1.2-.1-.1 0-.2-.1-.3-.1s-.2.1-.2.2c.1.1.3-.1.5.1l.1.1c0 .1.1 0 .1.1h.1c.1 0 .1 0 .1.1 0 0 .2.1.1.2l-.1.1c-.1.1-.3.1-.4 0h-.1c-.1.1-.1.1-.2.1s-.2 0-.2-.1l-.1.1h-.4c-.1 0-.1-.1-.1-.1-.1.1-.1.2-.3.1-.1 0-.2-.1-.2-.2h-.2c-.1 0-.1-.1-.2-.1-.3 0-.4 0-.4-.2z"/><path class="st7" d="M39.8 30.7c.1.1.1 0 .3.3.3.4.4 1 .2 1.5-.1.1-.1.3-.2.4-.2.5-.4 1-.4 1.5 0 .7.6 1.2 1.1 1.4.6.2 1.3 0 1.7.5.1.1.1.1.1.2l.3-.3c.5-.3 1-.2 1.6-.4s1.1-.7 1.1-1.4c0-.4-.1-.7-.2-1.1-.1-.4-.3-.6-.4-.9-.1-.4-.1-.7 0-1.1.1-.2.2-.5.4-.6l.2-.1c-.1-.1-.4-.3-.5-.5-.1-.1-.1-.1-.1-.2s-.1-.1-.1-.2l-.3-.3c-.2.1-.5.3-1 .3-.2 0-.4 0-.5-.1-.2-.1-.3-.2-.3-.3-.1 0-.1.1-.2.2-.2.2-.4.3-.7.3-.5 0-.7-.2-.9-.3l-.3.3s0 .1-.1.1l-.3.3s0 .1-.1.1l-.4.4zm.4-.1c.1-.1.3-.3.4-.5.1-.1.4-.5.4-.5.2.1.5.2.8.2.2 0 .3 0 .5-.1.1 0 .1 0 .2-.1.1 0 .1-.1.2-.1v2.7h-2c0-.2.1-.3.1-.5 0-.4-.2-.8-.4-1.1-.1.2-.2.1-.2 0zm2.7-.9c.1 0 .1.1.4.2.1 0 .3.1.5.1.4 0 .5-.1.8-.2l.3.4.1.1c.1.1.4.4.4.5s-.1.1-.1.1l-.1.1c-.2.3-.3.7-.3 1 0 .3.1.3.1.6h-2l-.1-2.9zm-.1 6.4-.2-.2c-.7-.4-1.5-.1-2.2-.7-.5-.5-.4-1.2-.1-1.9.1-.1.2-.5.3-.6h4.5c.2.2.4.9.5 1.2.1.6 0 1-.3 1.3-.7.7-1.6.3-2.3.8-.1 0-.2.1-.2.1z"/><path class="st2" d="M42.9 29.7v2.7h.8c.1 0 .2-.1.2-.2v-.5c0-.2 0-.3-.1-.4h.1v-.2s0 .1.1.1l.1-.1v.1h.1c-.1.2-.1.1-.1.5v.4c0 .1 0 .2.1.3s.6 0 .8 0c0-.2-.1-.3-.1-.6 0-.4.1-.7.3-1l.1-.1.1-.1c-.1-.1-.4-.4-.4-.5l-.1-.1-.3-.4c-.3.1-.4.2-.8.2-.2 0-.3 0-.5-.1-.3.1-.3 0-.4 0zm1 .6v-.1c.1 0 .1 0 0 .1.1 0 .1 0 0 0zm-.3.1c-.1 0-.1-.1-.1-.1 0-.1.1 0 .1.1zm.6.1c0-.2 0-.2.2-.3v.2c-.1.1-.2.1-.2.1zm-.1-.3v.1l-.1.1c-.1 0 .1-.2.1-.2zm-.3.2s-.1 0 0 0c-.1-.1-.1-.2-.1-.2l.1.1v.1zm.6 0c0-.1 0-.1.1-.1 0 .1-.1.1-.1.1zm-1 .1c-.1 0-.1-.1-.1-.1.1 0 .1.1.1.1zm.3.2-.1-.1c-.1-.1-.1-.2-.1-.3.3.1.3.2.2.4 0 0 .1 0 0 0zm-.4-.2c-.1 0-.1 0-.1-.1l.1.1zm1.3-.1c0 .2-.3.1 0 0zm-1 .2c-.1 0-.1 0 0 0-.1-.1-.1-.2-.1-.2s.1.1.1.2zm.3-.3.1.1c0 .1 0 .1-.1.2-.1 0-.1-.2 0-.3zm.5.5c.1-.1.1-.2.3-.2-.1.1-.2.2-.3.2zm-.3.1c0-.1.1-.2.1-.3l.2-.1c0 .2-.2.4-.3.4zm-.5 0c-.1 0 0 0 0 0-.1 0-.2 0-.2-.1l-.1-.2c.2 0 .3.1.3.3zm.5-.5v.2c0 .1-.2.2-.1 0 0-.1 0-.2.1-.2zm.5.4c0-.1.1-.1.2-.1 0 .1-.1.1-.2.1zm-.8.1c-.1-.1-.2-.1-.2-.3.1.1.2.2.2.3zm-.7-.2c.1 0 .3.1.2.2 0 0-.1 0-.1-.1 0 0-.1 0-.1-.1zm1.4.3c0-.1.1-.1.2-.2 0 .2 0 .1-.2.2zm-.4.1c0-.2.2-.2.4-.3 0 .3-.2.3-.4.3zm-.2-.5c.1 0 .1.1.1.2v.3c-.1 0-.1-.1-.1-.2-.1 0-.1-.2 0-.3zm-.6.4h.3c.1.1.1.1.1.2h-.1c-.2.1-.2-.1-.3-.2zm.3 0c.1 0 .2.1.2.2-.1 0-.1 0-.1-.1l-.1-.1zm.8.1c.1-.1.2-.2.3-.1-.1.1-.1.2-.3.1 0 .1 0 .1 0 0zm-1.3 0c.1 0 .1 0 0 0 .1 0 .1 0 0 0zm.3.1c-.1 0-.3.1-.4 0 .1-.1.2-.1.4 0zm.8 0c.1 0 .3 0 .3.2-.2-.1-.1 0-.3-.2 0 0 .1 0 0 0zm.6.2c-.1 0-.2-.1-.2-.1 0-.1.1-.1.2.1-.1-.1 0-.1 0 0zm-1.6-.1c.1-.1.3-.1.3 0 0 0 0 .1-.1.1 0 0-.1 0-.2-.1zm.5.1s.1 0 .1-.1c-.1.2-.3.2-.5.2 0-.1.1-.2.2-.2s.2-.1.3 0l-.1.1zm.5 0c.1 0 .2.1.3.2l.1.1c-.2 0-.3-.1-.4-.3zm.3 0c.1 0 .1 0 .1.1l-.1-.1s0 .1 0 0zm-1.3.1c0-.1 0-.1.1-.1 0 .1 0 .1-.1.1zm.6 0c0 .1-.1.2-.3.3.1 0 .2-.3.3-.3zm.3 0c.1.1.2.1.2.3 0 0-.1 0-.2-.1v-.2zm-.7.2c0-.1.1-.1.1-.1.1.1.1.1-.1.1.1 0 .1 0 0 0zm.4.1c0-.1 0-.1.1-.1l-.1.1c0-.1 0 0 0 0zm.3-.1c.1 0 .1.1.1.1-.1 0-.1 0-.1-.1z"/><path d="M42.7 29.7v2.7h-.8v-.5c.1-.3-.1-.2.2-.4l.2-.4c.1-.6 0-.6.2-.6v-.1c-.1 0-.2-.1-.3-.1v-.1c-.2.1-.1.6-.2.7 0 .1-.1.1-.1.1-.2.1-.6-.2-.8-.1-.1.1-.2.2-.3.2l.1.1c0 .1 0 .1.1.1.1.1 0 .2 0 .4 0 .1 0 .1-.1.2 0 .1.1.2.1.5h-.4c0-.2.1-.3.1-.5 0-.4-.2-.8-.4-1.1 0-.1-.1-.1-.1-.2.1-.1.3-.3.4-.5.1-.1.4-.5.4-.5.2.1.5.2.8.2.2 0 .3 0 .5-.1.1 0 .1 0 .2-.1.1.2.1.1.2.1zm-1.1 1.9h-.2c-.1 0-.1 0-.1-.1 0 0 0 .1.1.1 0 .1 0 .2-.1.2 0 .1-.1.1-.1.2s.1.4.1.4h.3v-1 .2zm.2.2-.1.3v.4h.1v-.7zm-.7.2v-.2.2c-.1 0-.1 0 0 0-.1.2 0 .4 0 .5h.1c0-.3-.1-.4-.1-.5z" style="fill:#5cbde1"/><path class="st7" d="M41 34.2c0 .1 0 .1-.1.2-.1-.1 0-.3.1-.2 0-.2 0-.3.1-.3.6-.4 1.6 0 1.5.7h-.1c0-.2 0-.1-.2-.2-.1-.1 0-.1-.1-.2-.1 0-.1-.1-.2-.1-.3-.3-.8-.3-1 .1zm1.6-.1c0 .1.1.1.1.2v-.1c.1-.5-.5-.9-1.2-.8-.2 0-.4.2-.4.3.1-.1.2-.1.5-.1.4 0 .8.2 1 .5zm-.7-.7c.3 0 .6.2.7.4 0 0 .1.1.1.2s0 .2.1.2c.2-.3-.3-.9-.9-.8-.2-.1-.4 0-.5.1.2-.1.2-.1.5-.1zm.6 0c.2.2.3.3.3.6.2-.4-.4-1-1-.8h-.1c.4 0 .6.1.8.2zm.2 0c.2.2.2.3.2.6 0 0 .1-.1.1-.2 0-.4-.4-.7-.8-.7h.2l.3.3zm-.8 1.6c-.4-.1-.4.1-.2.2.2 0 .3-.1.2-.2zm.6-.1c-.2.1-.1.3.1.2.2 0 .1-.2-.1-.2zm1-.7c-.1.1-.2.1-.4.2.5.1.7-.4.5-.6 0 .1 0 .2-.1.4zm-.2.2c.1.1.3 0 .4-.1.1-.1.1-.3 0-.4.1.3-.1.4-.4.5zm0-.2c-.1 0-.1.1-.2.1.5 0 .6-.5.4-.7 0 .3 0 .5-.2.6zm.4.1c-.1.1-.2.1-.4.2.3 0 .4 0 .4-.2.2-.1.2-.3.1-.4.1.2 0 .3-.1.4zm-1.4.5c.2 0 .1-.2 0-.2s-.2 0-.2.1.1.2.2.1zm.7-1.1v.3c.1-.2.1-.3 0-.5-.1-.1-.2-.3-.4-.3.2.1.4.3.4.5zm.3.3c0 .1-.1.1-.1.2H43c.3 0 .5-.3.4-.5 0-.1-.1-.1-.1-.2 0 .1.1.1.1.2s0 .2-.1.3zm.2.6c.5 0 .6-.3.4-.5.1.4-.2.4-.4.5zm-.6.3c0 .2 0 .1.1.2h.1c.1 0 0-.3-.2-.2zm-.8-.7c-.2.1 0 .2.2.2.1-.1 0-.3-.2-.2zm1.1-.3c0 .2-.1.2-.2.3.3-.1.4-.5.2-.7 0 .1.1.2 0 .4zm-2.1.4c-.2 0-.1.2.1.2.2-.1.1-.3-.1-.2zm2-.4c0 .1-.1.1-.1.2.1-.1.2-.3.2-.4 0-.2-.2-.3-.3-.3.2 0 .3.2.2.5zm-1.7.9c-.1-.1-.1-.1 0 0-.2-.1-.3-.1-.3 0 .1.1.2.1.3 0zm.9.3c0-.1 0-.1 0 0-.1-.1-.1-.1 0 0-.3 0-.3-.1-.3 0 .1.1.2 0 .3 0zm1.7-.6c.1-.1.1-.2 0-.3 0 .4-.2.4-.3.5.2-.1.3-.1.3-.2zm-.9.2c0-.1-.2-.1-.3-.1 0 .1.1.1.1.1.1.1.2.1.2 0zm-.6.1c.1 0 .1 0 0 0 .2 0 .2 0 .2-.1-.1-.1-.1 0-.3 0l.1.1zm-.8-.2h-.2c-.2.1-.1.2.1.1.1 0 .1 0 .1-.1zm.5 0c-.1-.1-.3-.1-.3.1.1 0 .3 0 .3-.1zm-.7-.5c-.1 0-.1 0 0 0 0 .2.1.2.2.1-.1-.1-.1-.1-.2-.1zm1.3 1s-.1 0 0 0c-.1 0-.1 0 0 0 0 .2.1.2.2.1-.1-.1-.1-.1-.2-.1zm-.3.3c.1-.1 0-.1.1-.2-.3 0-.4.2-.1.2zm.9-.2c0-.1-.1-.1 0 0-.2-.1-.2-.1-.2 0s.2.1.2 0zm.2 0h-.2c0 .1.2.1.2 0 .1 0 .1 0 0 0zm-1.7-.4c.1 0 .1 0 0 0 0-.1 0-.1-.2 0h-.1c.1.1.2.1.3 0zm-.3.2h-.2s-.1 0-.1.1c0 0 .1.1.3-.1 0 .1-.1.1 0 0zm-.7-.3c-.1.1 0 .1.1.2 0-.1 0-.1.1-.2h-.2zm3.3-.3c0 .1 0 .2-.2.3h-.1c.2-.1.3-.2.3-.3zm-2 .5c-.1 0-.1 0 0 0-.2-.1-.1-.1-.2-.1l-.1.1c.1.1.2.1.3 0zm-.2.4s-.1 0 0 0c-.1-.1-.1-.1 0 0-.3 0 .1.1.2 0H42zm-.4-.8c.1.1.2 0 .3 0h-.1c-.1-.1-.1-.1-.2 0 0-.1 0-.1 0 0zm1.8.5c0-.1-.1-.1 0 0l-.2-.1v.1c.1.1.2.1.2 0zm-1.4-.6s0-.1 0 0c-.2-.1-.2-.1-.3-.1.1.1.2.1.3.1zm1.1.4c-.2.1-.1 0-.2.1h.1c.1 0 0 0 .1-.1.1 0 .1 0 0 0zm-1.2.4c0 .1.1.1.2.1l.1-.1h-.3zm1.5.1c0 .1.2.1.3.1h-.1c-.1-.1-.2-.1-.2-.1zm-.9-.8c-.1 0-.1 0 0 0-.1.1-.1 0 0 0l.1.1c0-.1-.1-.1-.1-.1zm.2.4c.1.1 0 .1 0 0 .1 0 .1 0 .1-.1 0 .1 0 .1-.1.1zm-.2.5h.3c0-.1-.2-.1-.3 0zm-1.1-1.1h.3-.3zm2.9.2c0 .1-.1.1-.1.2.2-.1.2-.3.1-.4v.2zm-3 0c-.1 0-.3 0-.3.1.1 0 .3 0 .3-.1zm1-.1c.1 0 .2.1.3 0-.1-.1-.3-.1-.3 0zm-.9.5h.2v-.1c-.1 0-.1 0-.2.1zm.1-.4c-.1 0-.2 0-.3.1.1.1.3 0 .3-.1zm-.4.4c0 .1 0 .1 0 0 .2 0 .1 0 0 0zm1.9.5c0-.1 0-.1 0 0-.1 0 0 0 0 0 .1.1.2.1.2.1 0-.1-.1-.1-.2-.1zm-1-1c-.2 0-.3-.1-.3-.1 0 .1.2.2.3.1zm1.4.7.2.1c0-.1-.2-.1-.2-.1zm-1-.2c.1 0 .1 0 0 0 0-.1-.2 0 0 0 0 .1-.1.1 0 0zm.8.4c-.1-.1 0 0 0 0-.1-.1-.1-.1-.2 0 0 0 .1.1.2 0zm-1-.9c-.1 0-.1 0 0 0h.1c0 .1 0 .1-.1 0zm2.4-.6c-.1-.1-.2-.1-.3 0 .2-.1.2-.1.3 0zm-2.6.3h.1-.1zm-1 .4c0-.1 0 0 0 0-.1-.1-.1-.1 0 0-.1-.1-.1-.1 0 0zm3.6-.8c0-.1 0 0 0 0h-.2c-.1 0-.1 0-.1.1.1-.1.1-.2.3-.1zm-.3 0c.1-.1.1-.1.2-.1-.1-.1-.2-.1-.2.1zm-1.8 1.6c0 .1.1.1 0 0 0-.1.1-.1 0 0zm1.9-1.3c.2.1.1 0 .2.2 0-.2-.1-.2-.2-.2zm.3 0c0-.1-.2-.2-.3-.1.2 0 .2 0 .3.1zm-3.7.6c-.1 0-.1 0 0 0 0 .1.1.1.2 0H41zm.5.5c0 .1.1.1 0 0 .1.1.1.1 0 0zm-.1-.6s-.1 0 0 0h.2c-.2-.1-.2-.1-.2 0zm.4.1c-.1.1-.1.1 0 0 0 .1 0 .1 0 0zm.6.6c-.1 0-.1 0 0 0 0 0-.1 0 0 0zm-.5-1.1c-.1 0-.1 0 0 0zm2.5 0c.1.2.1.2.2.3-.1-.2-.1-.3-.2-.3zm.2-.2-.2-.1c.1 0 .1 0 .2.1zm-1.7 1.2c.1.1.1.1 0 0 .2 0 .1 0 0 0zm1.5-1.1c.2.1.1.1.2.2 0-.1-.1-.2-.2-.2zm-.1-.5s.1 0 0 0c0-.1-.1 0 0 0 0 .1 0 .1 0 0zm-3 .7c.1.1 0 .1 0 0 0 0 .1.1 0 0zm.4 0c.1.1.1 0 .2 0h-.2zm.6.4z"/><path d="M41.1 34.9c0 .2.1.1.3.2.1 0 0 .1.2.1h.2c0 .1 0 .2.2.2s.2 0 .3-.1c0 0 0 .1.1.1s.3.1.4 0c.1 0 .1 0 .1-.1 0 .1.1.1.2.1s.2 0 .2-.1h.1c.1.1.3.1.4 0 0-.1 0 0 .1-.1s-.1-.1-.1-.2c0 0 0-.1-.1-.1h-.1l-.1-.1c0-.1 0 0-.1-.1-.1-.2-.3 0-.5-.1 0-.1.1-.2.2-.2s.2 0 .3.1c.4.2.9.4 1.2.1.4-.4.3-.9 0-1.1-.2-.1-.5-.1-.6 0s-.1.3 0 .3c.1.1.1-.1.2-.2.2-.1.3.5 0 .4-.1 0-.4-.3-.5-.3-.2-.1-.3-.2-.5-.4-.4-.2-.8-.4-1.3-.2-.5.1-1.2.8-1.1 1.3 0 .1.1.1 0 .2v.1c0 .2.2.2.3.2zm1.8-.9c0-.3 0-.4-.2-.6-.1-.1-.2-.2-.4-.2h-.2c.4 0 .8.3.8.8.1-.1.1 0 0 0zm.1 0c0-.1.1-.1 0-.3 0-.3-.2-.4-.5-.6.2 0 .3.2.4.3.2.2.2.4.1.6zm-1.3-.8c.7-.1 1.3.4 1.1.8 0-.3-.1-.5-.3-.6-.2-.1-.4-.2-.8-.2zm1.3.9c0-.1.1-.1.1-.2.1-.3-.1-.5-.2-.6l.3.3c0 .2 0 .4-.2.5zm-1.6-.6c.1-.1.3-.2.5-.2.7 0 1.1.5.9.9 0-.1 0-.1-.1-.2 0-.1-.1-.1-.1-.2-.2-.2-.5-.3-.7-.4-.3 0-.3 0-.5.1zm1.6.7c.1-.1.2-.1.2-.3.1-.2 0-.3-.1-.4.3.2.2.6-.1.7zm1.2-.6c0-.1.1-.2.2-.1 0 0-.1 0-.2.1.1 0 .1 0 0 0zm-1.2.6.2-.1s.1-.1.1-.2v-.2c0-.1 0-.1-.1-.2 0 .1.1.1.1.2.2.3 0 .5-.3.5zm1.3-.5c0-.1.1-.2.2-.1-.1 0-.1 0-.2.1zm-3.2.1c.1-.1.3-.2.4-.3.6-.1 1.3.3 1.2.8v.1c0-.1-.1-.2-.1-.2-.2-.3-.6-.5-1-.5-.3-.1-.4 0-.5.1zm2 .5c.1 0 .1-.1.2-.1.3-.2.2-.4.2-.6.2.2 0 .7-.4.7zm1.2-.6c0-.1 0-.1 0 0l.2-.1c-.1 0-.1.1-.2.1zm.1.1c.1-.1.2-.1.3 0-.2-.1-.2-.1-.3 0zm-1.3.6c.2-.1.3-.1.4-.2.1-.1.1-.2.1-.4.2.1 0 .6-.5.6zm1.3-.5s.1-.1 0 0c.2 0 .2 0 .2.1-.1-.2-.1-.2-.2-.1zm-1.1.5c.3-.1.5-.2.5-.6.1.1.1.3 0 .4-.2.2-.5.3-.5.2zm-2.4 0c-.1-.1 0-.3 0-.3.1-.1.1-.2.2-.2.6-.4 1.6 0 1.5.7h-.1c0-.2 0-.1-.2-.2-.1-.1 0-.1-.1-.2-.1 0-.1-.1-.2-.1-.4-.2-.9-.2-1.1.3 0-.1 0-.1 0 0zm3.5-.5c.1-.1.2 0 .3.1-.1-.1-.1-.1-.3-.1zm-.6.5c-.1.1-.2.2-.4.1.2-.1.2 0 .4-.1V34c.2.1.1.3 0 .4zm.8-.3c-.1-.1 0-.1-.2-.1.1 0 .2 0 .2.1zm0 .1c-.1-.1 0-.1-.2-.2.1 0 .2.1.2.2zm-.7-.2c.2.2.1.5-.4.5.2 0 .5 0 .4-.5zm-1.9.1c.1 0 .1 0 0 0h-.1.1zm2.5.3c0-.1 0-.1-.1-.2 0-.1-.1-.1-.1-.1.2 0 .2.1.2.3zm-2.8-.3c0-.1 0-.1 0 0zm-.3.1c0-.1.1-.1 0 0 .2-.1.2-.1.2 0h-.2zm-.1 0c.1.1 0 0 0 0 0 .1.1.1 0 0zm.4 0c.1 0 0 .1 0 0zm2.5.2c0 .2-.1.3-.3.3h.1c.2-.1.2-.2.2-.4v.1zm.1-.2c.1.1.1.4-.1.4 0-.1.1-.1.1-.2v-.2zm-2.2 0c.2-.1.3.1.2.2-.2 0-.4-.2-.2-.2zm-.3.1h.2c0 .1 0 .1.1.1-.2 0-.3 0-.3-.1zm-.4 0c.1-.1.2-.1.3 0-.1.1-.3.1-.3 0zm-.3 0c.2 0 .2.1.1.2-.2 0-.2-.2-.1-.2zm.6.1c0-.1 0 0 .3.1-.1 0-.3-.1-.3-.1zm2 .2c.1-.1.4-.1.3-.5.1.1.1.3 0 .3 0 .2-.1.2-.3.2zm-1.4-.2c.1-.1.2-.1.3 0h-.3zm-.9.1c.1 0 .1 0 0 0zm.7 0c.2.1.2 0 .2.1 0-.1-.2-.1-.2-.1zm-1.2-.1c.1 0 0 0 0 0 .1.1 0 .1 0 0 0 .1 0 .1 0 0zm.7.1c0-.1 0-.1 0 0 .1-.1.1 0 .2 0h.1-.3zm-.6.1c0-.1.2-.1.3-.1 0 .1-.2.1-.3.1zm.2 0c0-.1.2-.1.3-.1 0 .1-.2.2-.3.1zm1.2 0c0-.1 0 0 0 0 .1-.1.1-.1 0 0 .2-.1.2-.1.2 0h-.2zm-.5 0c0-.1.3-.1.3-.1 0 .2-.2.2-.3.1zm-.9 0c.1.1.1 0 .2 0-.1.1-.2.1-.2 0-.1 0-.1 0 0 0zm1.3-.1c0 .1 0 .1 0 0 0 .1 0 .1 0 0 0 .1 0 .1 0 0zm-.6.1c0 .1-.1.1 0 0-.3.2-.4.1-.2 0h.2zm0 .1.2-.1c-.1.1-.1.1-.2.1zm.7-.1c.1 0 .2-.1.3 0 0 .1 0 .1-.1.1h-.1l-.1-.1zm-1.3.1c-.1.1-.1.1-.1.2-.1 0-.2 0-.1-.2h.2zm2 0c0 .1-.1 0-.2 0s-.1 0-.1-.1c.1 0 .3 0 .3.1zm-1.4.1c.2-.1.2-.2.3-.1 0 .1-.1.1-.1.1-.1.1-.2.1-.2 0zm.5-.1c.2 0 .3.1 0 .2-.1 0-.2 0-.2-.1.1-.1.2-.1.2-.1zm-1.1.1c0-.1.1-.1.2-.1v.1c0 .1-.1.1-.2 0zm1.9.1c.1 0 0 0 .2-.1.1 0 .1 0 .1.1H43zm-.7.1c-.1-.1.1-.2.2-.1l-.2.1s.1 0 0 0zm-.9-.1c0-.1.1-.1.2-.1v.1h-.2zm1.3 0h.2c0 .1-.1 0 0 .2-.2-.1-.1-.1-.2-.2zm-.8 0h.2c0 .1-.1.1-.2 0zm-.8 0h.2v.1c-.1 0-.2 0-.2-.1zm.2.2c0-.1 0-.1 0 0 .2-.1.2-.1.3-.1 0 .1 0 .1-.1.1h-.2zm1.9-.2s.1 0 0 0c.1.2 0 .2 0 .2v-.2zm-.7 0c.2-.1.3.1.1.2-.2.1-.4-.1-.1-.2zm.4 0c.2-.1.3.2.2.2H43s-.1 0-.1-.2zm-.9.2c0-.2 0-.1.2-.2v.2s-.1.1-.2 0zm-.2-.2c.1.1.1.1 0 0 .2.1.1.3-.1.2-.2 0-.1-.2.1-.2zm1.6.2s.2 0 .2.1l-.2-.1zm-.5 0c.1 0 .1 0 0 0 .1.1.1.1 0 0zm-1.3 0c0 .1 0 .1 0 0-.1.1-.1.1 0 0zm.7.1c0-.1 0-.1 0 0 0 0 .1 0 0 0zm-.4 0h.3l-.1.1s-.1 0-.2-.1zm.8 0c.1-.1.1-.1 0 0 .2-.1.2-.1.2 0s-.2.1-.2 0zm.4 0c0-.1.1-.1 0 0 .2-.1.2-.1.2 0 .1.1-.1.1-.2 0zm-.6.2c-.2 0-.2-.2.1-.2-.2.1-.1.1-.1.2zm1.1-.2c.1 0 .1 0 0 0 0 .2-.2.1-.2.1.1-.1.2-.1.2-.1zm-1.7.1s.1 0 0 0c.2.1.2 0 .3 0-.1.2-.5 0-.3 0 0-.1 0 0 0 0zm1.2-.1c.1.1 0 0 0 0 0 .2-.1.1 0 0-.1 0-.1 0 0 0zm-.6.1c.1-.1 0-.1 0 0 .1 0 .1 0 0 0zm1 .1c.1 0 .1 0 0 0 0 0-.2 0-.2-.1.1 0 .2 0 .2.1zm-.5 0c.1.1.2 0 .2.1 0-.1-.1-.1-.2-.1 0 0-.1 0 0 0 0-.1 0-.1 0 0zm-.5 0c.1-.1.2-.1.3 0h-.3z" style="fill:#612007"/><path class="st2" d="M42.6 37.2c-.1-.1-.5-.3-.8-.3.1.1.5.3.8.3zM43 37.2c.2 0 .4-.1.6-.2.1 0 .1-.1.2-.1h-.1c-.2 0-.3.1-.5.2l-.2.1zM42.7 37.4h.2v-.2l-.2.1z"/><path class="st6" d="M47.3 29.8c.1 0 .1.1.1.1 0 .1-.1.1-.1.1l-.1-.1c-.1 0 0-.1.1-.1zM47.1 29.4c.1 0 .1.1.1.1 0 .1-.1.1-.1.1-.1 0-.1-.1-.1-.1s0-.1.1-.1zM46.2 30.2c.1 0 .1.1.1.1 0 .1-.1.1-.1.1-.1 0-.1-.1-.1-.1 0-.1.1-.1.1-.1zM46.9 32.1c.1 0 .1.1 0 0 .1.2 0 .2 0 .2-.1 0-.1-.1 0-.2-.1.1-.1 0 0 0zM47.7 32.4c.1 0 .1.1 0 0 .1.2 0 .2 0 .2-.1 0-.1-.1 0-.2-.1 0-.1 0 0 0zM46.5 34.6c.1 0 .1.1 0 0 .1.2 0 .2 0 .2-.1 0-.1-.1 0-.2-.2 0-.1 0 0 0zM47.5 35c.1 0 .1.1 0 0 .1.2 0 .2 0 .2V35c-.1 0-.1 0 0 0zM47.5 34.6c.1 0 .1.1 0 0 .1.2 0 .2 0 .2-.1 0-.1-.1 0-.2-.1.1-.1 0 0 0z"/><path class="st10" d="M42.5 32.5h-.7v-.7l-.1.3v.4h-.1v-1 .1h-.2c-.1 0-.1 0-.1-.1 0 0 0 .1.1.1 0 .1 0 .2-.1.2 0 .1-.1.1-.1.2s.1.4.1.4h-.1c0-.3-.2-.4-.1-.5v-.2.2c-.1.1-.1.1-.1.2s.1.3.1.4H41c0-.2-.2-.4-.1-.5 0-.1 0-.1.1-.2 0-.1.1-.2 0-.4 0-.1 0-.1-.1-.1 0-.1 0-.1-.1-.1 0-.1.2-.2.3-.2.2-.1.6.2.8.1.1 0 .1-.1.1-.1.1-.1 0-.6.2-.7v.1c.1 0 .2.1.3.1v.1c-.3 0-.2 0-.2.6 0 .3 0 .3-.2.4-.2.3-.1.1-.2.4v.5h.6zM43.1 32.5zm1.2 0h-.8.3c.1 0 .2-.1.2-.2v-.5c0-.2 0-.3-.1-.4h.1v-.2s0 .1.1.1l.1-.1v.1h.1c-.1.2-.1.1-.1.5v.4c0 .1 0 .2.1.3-.1 0-.1 0 0 0z"/><path d="M43.3 31.6c0-.1.1-.2.2-.2s.2-.1.3 0l-.1.1s.1 0 .1-.1c-.1.2-.4.2-.5.2zm.8-.7c.1-.1.3-.2.3-.5l-.2.1c-.1.2-.1.3-.1.4zm-.5 0c-.1 0 0 0 0 0zm-.4-.3.1.2s.1.1.2.1c.1-.2 0-.3-.3-.3zm.9.5c.2 0 .4-.1.4-.3-.2.1-.4.1-.4.3zm-.4.1c-.1-.1-.1-.1-.1-.2-.1 0-.2-.1-.3 0 .1.1.1.3.4.2 0 0 0 .1 0 0-.1 0-.1 0 0 0zm.2-.6v.3s0 .2.1.2 0-.2 0-.3c0-.1-.1-.1-.1-.2zm.6 1c-.1-.1-.2-.2-.3-.2h-.1c.2.2.3.3.4.2.1 0 0 0 0 0zm-.8-.9c.1 0 0 0 0 0 .1-.2 0-.3-.1-.4 0 .1 0 .2.1.3v.1zm1 .4c-.1-.1-.3 0-.3.1h.1c.1 0 .1-.1.2-.1zm-.6-.5v-.2c-.1 0-.1.2 0 .2-.1.2 0 .1 0 0zm.3.2c.2 0 .2-.1.3-.2-.2 0-.3.1-.3.2zm-.6.1c0-.2-.1-.3-.2-.3 0 .2.1.3.2.3zm-.4.3c-.1-.1-.3-.1-.4 0 .1.1.2.1.4 0zm.7.3c0 .1 0 .2.1.2 0 0 .1.1.2.1l-.3-.3zm.1-.3zm0 0c.2.1.1.1.3.1 0-.1-.1-.1-.3-.1 0 0 .1 0 0 0 .1 0 .1 0 0 0 .1 0 .1 0 0 0 .1 0 0 0 0 0zm.1 0c-.1 0-.1 0 0 0zm-.5.3c-.2 0-.3.3-.3.3.2 0 .3-.2.3-.3zm.1-.9s.1-.1.1-.2-.1-.1-.1-.1c-.1.1-.1.3 0 .3zm-.6.3c0-.1-.1-.2-.2-.2l.1.1c0 .1.1.2.1.1zm1-.5v-.2c-.1 0-.2.1-.2.3.1 0 .2 0 .2-.1zm-.5.8c0-.2-.1-.2-.2-.2 0 0 .1.1.1.2h.1zm1-.5c-.1 0-.2 0-.2.1.1 0 .2 0 .2-.1zm-1.6.6h.2l.1-.1c0 .1-.2 0-.3.1zm1.5 0s-.1-.1 0 0c-.1 0 0 .1 0 0 .1 0 0 0 0 0zm-1.2-.8c0 .1 0 .1 0 0 .2 0 .1-.1 0-.1v.1zm.3-.1v-.1l-.1-.1s0 .1.1.2c-.1 0 0 0 0 0zm.2 0c.1 0 .1 0 0 0 .1-.2.1-.2 0-.2.1 0-.1.2 0 .2zm.5.6c.2 0 .1 0 .2-.2-.1 0-.2.1-.2.2zm0 .4c0 .1 0 0 0 0l.1.1-.1-.1zm-1.2 0c-.1 0-.1 0-.1.1.1 0 .1 0 .1-.1zm.8.3c0 .1 0 .1.1.1 0 0 0-.1-.1-.1zm-.8-1.2-.1-.1c0 .1 0 .2.1.1zm.7-.2v-.1c-.1 0-.1 0 0 .1zm-.4.1c0-.1 0-.1-.1-.1 0 0 0 .1.1.1zm-.2.1c0-.1 0-.1-.1-.1l.1.1zm1.2-.1c-.3.1 0 .2 0 0zm-1 1.2c-.1 0-.1 0-.1.1l.1-.1c0 .1 0 .1 0 0zm.2.2s0-.1 0 0l.1-.1c-.1 0-.1 0-.1.1zm-.7-.7s.1.1 0 0c.2-.1.1-.1 0 0zm1.3-.8-.1.1c.1 0 .2 0 .1-.1z" style="fill:#008a30"/><path class="st12" d="M47 34.9c-.1.1-.1.1 0 0-.1-.3 0-.7.2-1 .1-.3.5-.8.5-.9-.1.1-.5.7-.6.9-.1.3-.2.5-.2.8 0 .1 0 .3-.1.3v-.2c0-.2-.1-.5-.1-.7 0-.3.1-.6.2-.7.2-.3.7-.7 1.1-.8-.1.4-.1.4-.1.8-.1.7-.3 1-.8 1.4l-.1.1zm-.9-5c.1.1.4.2.6.2V30l-.1-.1-.1-.1-.1-.1-.1-.1c-.1-.1-.4-.4-.4-.5l.1.1.4.4.4.4s.1.1.2.1c-.1-.4 0-.7-.5-1-.2-.1-.8-.5-1.1-.4-.1.3.3 1 .7 1.2zm2.2 4c-.1.2-.2.3-.3.4 0 0-.4.4-.5.3.7-.4.9-1 .8-1.8l-.1.1-.1.1c-.2.1-.2.1-.3.2-.1.5-.1.4-.2.8.1-.1.4-.5.4-.6-.1.2-.4.6-.5.8-.1.1-.2.4-.4.5l-.2.2h.2c0 .1.1.1.2.1h.1v-.1c.1 0 .1 0 .2-.1.1 0 .1 0 .2-.1.3-.2.6-.5.6-.8 0 0 0-.1-.1 0zm-1.7.9c.1-.1 0 0 0-.2h.1c0-.2-.1-.3-.1-.5v-.4c-.1-.3-.3-.6-.3-.7 0 0 0 .1.1.1 0 .1.1.1.1.2.1.2.1.3.2.4l.1-.2c0-.1.1-.2.1-.2 0-.1-.2-.3-.2-.3-.2-.2-.4-.3-.7-.5v.3c0 .3 0 .5.1.8.1.5.3.6.4.8-.1 0-.2.1-.1.2.1.3.1.2.2.2zm-.9-3.6.1.1c.1.1.2.3.3.5l.3.3c.1.1.3.2.4.2 0 .2.1.2.3.1.1 0 .1 0 .2.1 0-.2-.1-.2-.2-.4l-.3-.3c-.1-.1-.2-.2-.3-.2-.1-.1-.3-.1-.3-.2.1 0 .4.2.6.3.2.1.3.3.4.4v-.5c-.5-.4-1-.5-1.5-.4zm1.7-.5c0-.1-.2-.3-.3-.4s-.3-.3-.4-.3c-.1.2-.1.2-.2.6 0 .2-.1.5 0 .7.1 0 .3.1.4.2l.1.1c0-.3.1-.2 0-.5 0-.2-.1-.3-.1-.5.1.1.1.4.2.6.1-.1.2-.4.3-.5zm-.8-1.6.1.1c0-.2 0-.5.1-.7 0 .2-.1.7 0 .8 0 .1.1.1.1.2s.1.4.1.5l.1-.3.1.1c0 .2-.1.2-.2.3h.2s0 .1.1.1c.2 0 .2-.3 0-.3-.1 0-.1.1-.2.1H47c0-.1 0 0 .1-.2 0-.1 0 0 .1-.1s0-.3-.2-.2c0-.3.1-.3 0-.7-.1-.2-.1-.3-.2-.5v-.2c-.2.1-.4.5-.4.9.1 0 .1 0 .2.1zm.1 6.4c-.1.1-.2.2-.2.3h.4c.1-.1.2-.4.2-.5s.1-.1.1-.2c-.3 0-.6.1-.7.2-.2.1-.4.3-.4.5.1 0 .2 0 .2-.1.1 0 .1 0 .2-.1l.3-.3c-.1.1-.1.1-.1.2zm1.4-4.2c0 .2-.2.6-.4.8 0 .1-.1.2-.2.2.5-.1.9-.8.6-1.4-.1.1-.1.1-.1.2v.3l.1-.1zm-1.4 2v-.4c0 .2 0 .5.1.6 0 0 0-.1.1-.1l.2-.2c0-.1-.1-.2-.2-.3-.1-.2-.1-.3-.1-.3-.1.1-.3.4-.3.6.1-.1.2 0 .2.1zm-1-3.4c.1.1.2.1.4.2.1 0 .4.1.5.1-.1 0-.2 0-.4-.1s-.4-.3-.6-.5c0-.1-.1-.1-.1-.2s-.1-.1-.1-.2c-.1 0-.3.1-.4.1 0 0 .1 0 .2.1l.5.5zm.4-1.2.2.1v-.4l.1-.2c-.1-.1-.3-.3-.4-.3.2.4.1.6.1.8zm-.1 2.4h.3c0 .1.1.1.2.1v-.3c-.1-.1-.2-.1-.4-.2l-.1-.1v.5zm.7 1.2c-.4-.2-.2-.1-.4-.3 0 0-.1-.1-.2-.1h.1c0-.1-.1-.1-.2-.2h-.2c0 .2.5.6.9.6zm.6-1.9.2.3v-.2.1l.1-.1s.1 0 .1-.1-.1-.4-.2-.4c0 .1 0 .1-.1.2 0 .1-.1.1-.1.2zm.8-.1c-.1.2 0 .5 0 .8 0 1-.6 1.2-.7 1.7l.2-.2c0-.1 0-.2.1-.2.2-.1.3.2.1.3h-.2c-.1 0-.1.1-.2.2s0 .1-.1.2c-.1-.1 0-.3 0-.5 0-.1-.1-.3-.1-.4-.2-.5 0-1.1.4-1.5 0-.1.3-.4.5-.4zm-.3.5c-.1.1-.3.6-.3.8 0 .1-.1.3-.1.5v.6c0-.2 0-.3.1-.5 0-.4.1-.6.2-.9-.1-.3 0-.4.1-.5zm-9.3 2.8c-.1-.5-.5-.9-.8-1.3l-.1-.1c-.1-.1-.1-.1-.3-.2v.1l.6 1.2.3.6c.1.2.2.5.3.6v-.9zm.4 2.1.3.2c0-.1-.1-.2-.1-.4 0-.3 0-.1-.1-.4v-1c0-.8.3-1.3.7-1.6-.2 0-.4.2-.5.2-.1.1-.2.2-.3.4-.3.6-.2 1.7-.1 2.4.1.1.1.1.1.2zm-.6-3.8c.2-.2.2-.4.4-.7.2-.3.2-.4.5-.7l.3-.3c.1 0 .1-.1.1-.1.2-.1.3-.2.5-.4.1-.1.2-.1.4-.2-.3 0-.7.2-.9.3-.6.4-1 1.1-1.3 1.7-.1.1-.1.1 0 .4zm.1 1.4c0 .1.1.3.1.4 0 0 .1-.4.1-.5 0-.3-.2-1-.3-1.3s-.2-.5-.4-.7c-.1-.1-.4-.5-.5-.5.3.4.7 1.6.9 2.2 0 .1.1.2.1.4zm.2-3c.1-.2.2-.4.2-.6.1-.2.1-.4.2-.6l.2-.6c-.4.5-.7 1.1-.8 1.8-.1.5-.1.3.1.7l.1-.7zm.7 2.1c.2-.3.3-.3.4-.4-.6 0-.9.5-1.1 1-.1.4-.2 1-.1 1.4 0 .3 0 .2.2.4v-.4c0-.7 0-.9.3-1.5.1-.2.2-.4.3-.5zm.8 4.2c-.2-.2-.9-.7-1.1-.8-.2-.1-1.1-.5-1.3-.5l.1.1.1.1c.2.2.5.4.8.6.5.1 1.1.4 1.4.5zm-1.3-1.3c0-.1 0-.1-.2-.2-.3-.4-1-.8-1.5-.9l.2.2.2.2c.3.3.9.9 1.3 1.1v-.4zm-1-.9.2.2c.2.2.4.3.6.5l.1.1c0-.2 0-.3-.1-.3l-.4-.4c-.2-.3-.9-.8-1.2-.9l.1.1c.2.1.6.5.7.7zm.3-3.1c0 .1 0 .2.1.2 0-.1.1-.2.1-.2.2-.3.2-.2.1-.5-.1-.2-.4-1-.6-1.1h-.2c0 .1.1.3.2.4l.3 1.2zm.4 1.2c.1-.5.2-.9.4-1.4.1-.3.4-.6.6-.8l.2-.2c-.5.1-.8.5-1 .9-.1.2-.3.6-.4.9 0 .1 0 .2.1.4.1.1.1.2.1.2zm-.8-.3.4.4c.1.1.2.3.3.5 0-.1-.1-.2-.1-.3-.1-.1-.3-.7-.3-.8-.1-.2-.6-.7-.8-.8 0 .2.2.6.3.8.1.2.1.2.2.2zm1.1-1.8c.1-.2.2-.3.4-.6.1-.2.3-.4.4-.5.1-.1.2-.1.2-.2 0 0 .2-.2.3-.2-.1 0-.5.2-.7.3-.4.3-.6.6-.8 1.1 0 .1-.2.6-.2.7v-.1c.2-.2.3-.3.4-.5zm1.3 6.1c.1.1.1.1.2.1h.3c-.1-.1-.3-.2-.4-.3-.1-.2-.2-.2-.3-.4-.2-.2-.4-.7-.4-1-.1.1 0 .5 0 .6 0 .2.1.4.2.5.2.3.3.4.4.5zm-.4-.3c-.3-.4-.4-1.1-.3-1.6 0-.2.1-.5.1-.5 0 .1-.1.2-.1.2-.1.3-.2.6-.2.9 0 .2.1.5.1.6l.4.4zm-.8-6.8c0 .1-.1.2-.1.3 0-.1.3-.3.3-.4l.5-.5c.1-.1.4-.3.6-.4.1 0 .2-.1.2-.2-.4 0-.9.3-1.1.5l-.4.4c.1.1.1.2 0 .3zm-.3 3.7c0-.1 0-.2.1-.2.1-.3.2-.3.2-.4 0-.1.1-.1.1-.2.1-.1.1-.3.2-.4.1-.1.3-.4.3-.4-.2.1-.6.4-.7.6-.1.2-.2.5-.2.8v.2zm-1 .6c.3.2.3.2.6.5l.2.2-.2-.4c0-.1-.5-.4-.5-.5-.1-.1-.1-.1-.2-.1L37 33l.6.7c-.1 0 0 0 0 0zm2.2-1c-.1 0-.2.2-.3.2l-.3.3c-.2.4-.2.7-.2 1.2.1-.4.1-.4.3-1 .1-.1.4-.6.5-.7zm-.7 1.6c-.1.4 0 .4 0 .8.1-.1.1-.6 0-.8.1 0 .1-.2.2-.2 0-.1.1-.3.1-.3l-.2.2c0 .1-.1.2-.1.3zm-.4-2.6c0 .1-.1.3-.1.4 0 0 .1-.1.1-.2.1 0 .1 0 0-.2.2-.1.3-.3.5-.5l.2-.3c-.2.2-.6.6-.7.8zm8.7 4.2c-.1.3-.5.6-.8.7-.6.3-.9 0-1.2 0-.1 0-1.6.5-2 .6-.1 0-.2.1-.3.1 0 0 .6.1.7.1.1 0 .4-.2.5-.3.2-.1.5 0 .8 0 .2 0 .5-.1.7-.1 0 0-.1.1-.2.1-.1.1-.1.1-.2.1-.5.1-.7-.1-1.1 0-.2 0-.3.1-.4.2h.1c.1 0 .4-.2.8-.1s.6 0 .7.1c.1 0 .1.1.2.1h-.8c-.2 0-.5-.1-.7-.1.1 0 .6 0 .5.4 0 .1-.2.1-.3.1-.2 0-.5-.2-.7-.2h-.4c-.2 0-.6-.1-.6-.3.1.1.2.2.3.2h.5c-.2-.1-.4 0-.7-.2-.1-.1-.1-.1-.2-.1s-.1.1-.2.1c-.2.2-.4.3-.7.2h-.1c-.1 0-.5.2-.5.2s-.3.1-.5 0l-.1-.1v-.3s.1-.1.2-.1h.2c-.3-.1-.4 0-.7.1h-.8s.1-.1.2-.1c.1-.1.1-.1.2 0h.5c.5-.1.7-.1 1.1.2.3.2.5.2.9 0l.2-.1c-.3 0-.5.3-.8.2-.2-.1-.4-.2-.6-.4-.3-.1-.6 0-.9 0h-.4c-.1 0-.3-.2-.3-.2.2 0 .5.1.7.1.5 0 .6-.1 1 .1s.2.2.8.1h.1c-.3-.1-.7-.2-1.1-.2-.4-.1-.6-.1-1.1-.2-.6-.2-1.1-.5-1.6-.9.1 0 .5.3.7.4.4.2.7.3 1.1.4h.5c.2 0 .6.2.8.2-.1-.1-.1-.1 0-.2 0-.1 0-.1.2-.1s.3 0 .4.1c.2.1.4.2.6.4.1-.1 0-.2-.1-.3s-.2-.1-.2-.2c-.2-.1-.4-.2-.7-.2.1-.2.5-.1.7 0 .4.2.3.3.5.4.1-.2.2-.3.4-.4.2-.1.5-.3.6 0-.3 0-.5.1-.7.2-.1.1-.4.3-.4.5.1 0 .1-.1.2-.2.3-.2.6-.4 1-.3 0 0 0 .1.1.1v.1c.1 0 1.2-.4 1.2-.4.1-.1 0-.6.5-1.2l.4-.4.1-.1s0-.1.1-.1c0 .2.1.3.1.5l-.3.3.1-.3c-.1.1-.1.2-.2.3 0 .1-.1.1-.1.2s0 .1-.1.1c-.2.1-.3.2-.4.4l-.1.1c.2 0 .2-.5.8-.6.4 0 1 .1 1.3.2zm-4.8 1.3c-.1-.1-.5-.3-.8-.3.1.1.5.3.8.3zm.3 0h-.2v.2h.2v-.2zm.8-.3c-.1 0-.1 0 0 0-.3 0-.4.1-.6.2l-.1.1c.2 0 .4-.1.6-.2l.1-.1zm3.2-.8c-.2.1-.4.2-.7.2-.1 0-.3.1-.4.1-.1 0-.4.1-.4.1 0 .1.1.1.2.1h.2c.3-.2.8-.3 1.1-.5zm-.4-3.3c0-.1 0-.1-.1-.2 0 0 0-.1-.1-.1 0 .1-.1.2-.1.3.1.1.2.1.3.2v-.2zm.9 2.2c-.1 0-.3-.2-.4-.1h.2c.1.1.1.1.2.1 0 .1 0 .2.1.2s.2 0 .2-.1V35c-.1 0-.2-.1-.3 0zm-.8-4.8s-.1 0 0 0h-.2c-.3-.3-.4.2-.1.2.1 0 .1-.1.1-.2.1.1.1.1.2 0 0 0 0 .1 0 0zM44.6 28.3c-.1.1-.3.3-.5.3 0-.2.3-.3.5-.3zm-3.2.3c0-.2-.3-.3-.5-.3 0 .1.1.2.2.2.1.1.2.1.3.1zm2.7-.7c-.1-.2-.4-.2-.6-.2.1.1.5.3.6.2zm.2.5c.1 0 .1 0 .1-.1.1-.1.1-.2.1-.3-.1 0-.2.1-.3.1 0 .1-.1.4.1.3zm-3.1 0c.3.1.1-.1 0-.2-.1 0-.2-.1-.3-.1.1 0 .2.2.3.3zm.6-1c.1-.1 0-.2 0-.3-.1 0-.2.1-.2.2-.1.1-.1.1 0 .3.1-.1.2-.1.2-.2zm.2.3c-.2 0-.5 0-.6.2.1.1.2 0 .3 0 .1-.1.3-.2.3-.2zm1.9-.1c.1-.1 0-.3-.1-.4l-.1-.1c0 .2 0 .4.2.5zm.3.5c.2 0 .3-.3.2-.4-.1.1-.3.2-.2.4zm-.4-.5c-.1-.1-.4-.1-.6 0 .2 0 .4.1.6 0zm-1.6-.2c0 .1.1.1.2.1h.3c-.1-.1-.4-.2-.5-.1zm-.6 1.4c-.1-.2-.3-.2-.5-.2.1.1.3.3.5.2zm.4-1.3H41.7c.2.1.4.1.6 0H42zm-.7.6c.1-.1.1-.2 0-.3l-.2-.2c0 .3.1.5.2.5zm2.5.7c.2-.2 0-.4-.1-.4 0 .1-.1.4.1.4zm.1 0h.3c.1 0 .2-.1.2-.2-.1 0-.4 0-.5.2zM42.2 27c-.1 0-.2.1-.2.1-.1.1-.1.1-.1.3.2 0 .3-.2.3-.4zm.9.5c.1 0 .2-.1.2-.1-.2-.1-.4 0-.5.1h.3zm-1.4 1.3c.2-.1.2-.2.1-.4v-.1c-.1.2-.3.4-.1.5zm-.3-1c.2-.2.1-.3 0-.4l-.1.2c0 .1 0 .2.1.2zm2.3-.4c0-.1 0-.2-.1-.3l-.2-.1c0 .2 0 .4.3.4zm-.4-.2c0-.2-.3-.2-.5-.3.1.3.3.4.5.3zm.9.5c.1-.1 0-.3-.1-.4-.1.2-.1.4.1.4 0 .1 0 .1 0 0zm-1.6-.5c.1 0 .1-.1.2-.2-.2 0-.4.1-.5.3.1 0 .2-.1.3-.1zm-.8.7c-.2 0-.4.1-.4.3.2 0 .3-.1.4-.3zm2.3.3c0-.2-.2-.3-.4-.3.1.2.2.3.4.3zm-.4.8c.2.1.4 0 .5-.1-.2-.1-.4 0-.5.1zm-1.6.3c.1 0 .4.1.5-.1-.1-.2-.4 0-.5.1zm1.4-.3c.2-.1.3-.2.2-.4-.1 0-.4.2-.2.4zm-1.6 0c-.1-.1-.3-.2-.5-.1 0 .1.3.2.5.1zm.2 0c.2-.2-.1-.3-.2-.4-.1.2 0 .3.2.4zm-.4-.8s-.1.1-.2.1c-.1.1 0 .1 0 .2.3 0 .2-.2.2-.3zm2.3.1c0-.1-.1-.1-.2-.1-.1.1-.1.4.2.4.1-.1.1-.2 0-.3zm-1.1.9s.1.1.2.1h.3c0-.1-.4-.3-.5-.1zm-.3-.1c0-.2-.2-.2-.4-.3 0 .2.2.3.4.3zm-.3 0c-.2-.1-.4 0-.5.1.1 0 .4 0 .5-.1zm.9-.1c.1 0 .1-.1.2-.2-.2 0-.4.1-.4.3.1 0 .2 0 .2-.1zm.1.1c.2.2.3.1.5.1 0-.1-.3-.3-.5-.1zm-.5-1.8c.1 0 .2 0 .2-.1-.1-.1-.3-.1-.4 0 0 .1.1.1.2.1zm-.1 1.8c0 .1.1.1.2 0-.1-.1-.2-.1-.2 0z"/><path class="st6" d="M44 36.9c0-.1.1-.1 0 0 0-.1 0-.2-.1-.2-.4 0-.7.1-1 .3-.1.1-.1.2-.2.2 0-.2.3-.4.4-.5.2-.1.4-.2.7-.2-.1-.2-.5-.1-.6 0-.2.1-.3.2-.4.4-.1-.1-.1-.2-.5-.4-.2-.1-.5-.2-.7 0 .3 0 .5 0 .7.2.1.1.2.1.2.2.1.1.2.2.1.3-.2-.2-.3-.3-.6-.4-.1 0-.3-.1-.4-.1-.1 0-.1 0-.2.1v.2l.2.2c.3.1.4.1.8.2 0 0-.2.1-.3.1-.5.1-.5 0-.9-.2-.4-.3-.6-.1-1-.1-.2 0-.5-.1-.7-.1 0 0 .2.2.3.2h.4c.3 0 .6-.1.9 0 .2.1.4.3.6.4.3.1.5-.1.8-.2l-.2.1c-.4.2-.6.2-.9 0-.5-.3-.6-.3-1.1-.2h-.7c-.1 0-.1.1-.2.1h.8c.3-.1.4-.2.7-.1 0 0 .5.3.7.3.3.1.5-.1.7-.2.1-.1.1-.1.2-.1s.2 0 .2.1c.3.2.5.1.7.2h-.5c-.1 0-.2-.1-.3-.2 0 .2.4.3.6.3h.4c.3-.3.6-.3.5-.3.2-.1.5.1.7.1h.8c-.1 0-.1-.1-.2-.1-.2-.1-.4 0-.7-.1-.6-.1-.8.2-.9 0 .1-.1.2-.2.4-.2.3-.1.6.1 1.1 0 .1 0 .1 0 .2-.1.1 0 .1-.1.2-.1-.2 0-.5.1-.7.1s-.6-.1-.8 0c-.1 0-.6.4-1 .4-.2 0-.4-.2-.4-.2s.4-.1.5-.1c.6-.1.7-.2.7-.3zm-.9.2c.2-.1.3-.1.5-.2h.1c-.1 0-.1.1-.2.1-.2.1-.4.2-.6.2l.2-.1zm-.5.1c-.2 0-.7-.2-.8-.3.3 0 .7.1.8.3zm.1.1h.2v.2h-.2v-.2z"/></g><path class="st3" d="M54.5 44.5c1.5-1.5 2.7-3.3 3.6-5.3l.1-.3c.8-2 1.2-4.1 1.2-6.2 0-2.2-.4-4.3-1.2-6.2l-.1-.3c-.8-2-2-3.8-3.6-5.3-1.1-1.1-2.2-1.9-3.5-2.7-.6-.4-1.3-.7-1.9-.9-2.1-.9-4.2-1.3-6.5-1.3-1.5 0-3 .2-4.5.6-.5.1-.9.3-1.3.4-.2.1-.4.2-.6.2h-.1c-2 .9-3.8 2.1-5.4 3.6-1.8 1.9-3.2 4-4 6.5l-.1.2c-.5 1.7-.8 3.4-.8 5.2 0 2.2.4 4.3 1.2 6.2l.1.3c.8 2 2 3.8 3.6 5.3 1.5 1.5 3.3 2.7 5.3 3.6l.3.1c4 1.6 8.5 1.6 12.5 0l.3-.1c2.1-.9 3.9-2.1 5.4-3.6zm-5.6 1.3-.2.1c-.2.1-.3.2-.5.2-1.8.7-3.7 1.1-5.5 1.1-1.9 0-3.7-.3-5.4-1l-.6-.3-.2-.1c-.1-.1-.3-.1-.4-.2-2.7-1.4-4.9-3.6-6.3-6.3-.1-.1-.1-.3-.2-.4l-.1-.2c-.1-.2-.2-.4-.2-.5-1.3-3.3-1.4-6.9-.3-10.2l.1-.4c.3-.7.6-1.4.9-2 .7-1.2 1.5-2.3 2.4-3.2 1.5-1.5 3.3-2.6 5.3-3.4.1 0 .2-.1.4-.1l.5-.1c1.4-.4 2.7-.6 4.1-.6 1.9 0 3.8.4 5.6 1.1.6.2 1.1.5 1.5.7 2.5 1.4 4.5 3.5 5.8 6 .1.1.1.3.2.4l.1.2c.1.2.2.4.2.5 1.4 3.5 1.4 7.5 0 10.9l-.3.6-.1.2c-.1.1-.1.3-.2.4-1.4 2.7-3.6 4.9-6.3 6.3 0 .1-.2.2-.3.3z"/></svg>