<svg xmlns="http://www.w3.org/2000/svg" viewBox="0 0 52.93 36.39"><title>icon-splonline</title><g id="Capa_2" data-name="Capa 2"><g id="Capa_1-2" data-name="Capa 1"><path d="M52,31.17H50.39v-27A4,4,0,0,0,46.62,0H6.25A4,4,0,0,0,2.48,4.15v27H.9a.9.9,0,0,0-.9.9v.81a3.52,3.52,0,0,0,3.51,3.51H49.43a3.51,3.51,0,0,0,3.5-3.51v-.81A.9.9,0,0,0,52,31.17ZM26.47,34.63a1.7,1.7,0,1,1,1.7-1.7A1.71,1.71,0,0,1,26.47,34.63ZM47.84,26A2.84,2.84,0,0,1,45,28.79H7.86A2.85,2.85,0,0,1,5,26V5.75A2.85,2.85,0,0,1,7.86,2.91H45a2.84,2.84,0,0,1,2.83,2.84Z" style="fill:#fff"/></g></g></svg>