<?xml version="1.0" encoding="utf-8"?>
<!-- Generator: Adobe Illustrator 22.0.1, SVG Export Plug-In . SVG Version: 6.00 Build 0)  -->
<svg version="1.1" id="Capa_1" xmlns="http://www.w3.org/2000/svg" xmlns:xlink="http://www.w3.org/1999/xlink" x="0px" y="0px"
	 viewBox="0 0 620 165" style="enable-background:new 0 0 620 165;" xml:space="preserve">
<style type="text/css">
	.st0{fill:#FFFFFF;}
</style>
<g>
	<g>
		<path class="st0" d="M317.2,120.4c0-3.3,0.3-6,1.2-8.4s2.1-4.2,3.6-5.7c1.5-1.5,3.3-2.4,5.4-3c2.1-0.6,4.2-0.9,6.6-0.9
			s4.5,0.3,6.6,0.9c2.1,0.6,3.9,1.5,5.4,3c1.5,1.5,2.7,3.3,3.6,5.7c0.9,2.4,1.2,5.1,1.2,8.4s-0.3,6-1.2,8.4
			c-0.9,2.4-2.1,4.2-3.6,5.7s-3.3,2.4-5.4,3c-2.1,0.6-4.2,0.9-6.6,0.9c-2.4,0-4.5-0.3-6.6-0.9c-2.1-0.6-3.9-1.5-5.4-3
			c-1.5-1.5-2.7-3.3-3.6-5.7C317.5,126.7,317.2,123.7,317.2,120.4 M333.7,132.4c1.2,0,2.7-0.3,3.9-0.6s2.1-0.9,3-1.8
			c0.9-0.9,1.5-2.1,2.1-3.6c0.6-1.5,0.9-3.6,0.9-5.7c0-2.4-0.3-4.2-0.9-5.7c-0.6-1.5-1.2-2.7-2.1-3.6s-1.8-1.5-3-1.8
			c-1.2-0.3-2.4-0.6-3.9-0.6c-1.5,0-2.7,0.3-3.9,0.6c-1.2,0.3-2.1,0.9-3,1.8c-0.9,0.9-1.5,2.1-2.1,3.6c-0.6,1.5-0.9,3.6-0.9,5.7
			c0,2.4,0.3,4.2,0.9,5.7c0.6,1.5,1.2,2.7,2.1,3.6c0.9,0.9,1.8,1.5,3,1.8C331.3,132.4,332.5,132.4,333.7,132.4"/>
		<path class="st0" d="M363.4,136.9c-1.8-0.6-3.3-1.5-4.8-3c-1.2-1.2-2.4-3-3.3-5.4c-0.9-2.1-1.2-4.8-1.2-8.1s0.3-6,1.2-8.1
			c0.9-2.1,1.8-3.9,3.3-5.4c1.2-1.2,3-2.4,4.8-3c1.8-0.6,3.6-0.9,5.7-0.9H386v6H370c-1.2,0-2.4,0.3-3.6,0.6
			c-1.2,0.3-2.1,0.9-2.7,1.8c-0.9,0.9-1.5,2.1-1.8,3.6c-0.6,1.5-0.6,3.3-0.6,5.4s0.3,3.9,0.6,5.4c0.6,1.5,1.2,2.7,1.8,3.6
			c0.9,0.9,1.8,1.5,2.7,1.8c1.2,0.3,2.1,0.6,3.6,0.6h9v-8.4h-6.9v-6H386v20.1h-16.8C367.3,137.8,365.2,137.5,363.4,136.9"/>
		<rect x="392.9" y="103.2" class="st0" width="6.9" height="34.5"/>
		<path class="st0" d="M407,131.8h18c1.2,0,2.4-0.3,3.3-0.9c0.9-0.6,1.5-1.8,1.5-3.3s-0.6-2.7-1.5-3.3s-2.1-0.9-3.3-0.9h-8.4
			c-1.5,0-3-0.3-4.5-0.6c-1.2-0.3-2.4-0.9-3.3-1.8c-0.9-0.9-1.5-1.8-2.1-3c-0.6-1.2-0.6-3-0.6-4.8c0-1.8,0.3-3.6,0.6-4.8
			c0.6-1.2,1.2-2.4,2.1-3c0.9-0.9,2.1-1.2,3.3-1.8c1.2-0.3,2.7-0.6,4.5-0.6h18.9v6h-18c-1.2,0-2.4,0.3-3.3,0.9s-1.5,1.8-1.5,3.3
			s0.6,2.7,1.5,3.3s2.1,0.9,3.3,0.9h8.4c1.5,0,3,0.3,4.5,0.6c1.2,0.3,2.4,0.9,3.3,1.8c0.9,0.9,1.5,1.8,2.1,3c0.6,1.2,0.6,3,0.6,4.8
			s-0.3,3.6-0.6,4.8c-0.6,1.2-1.2,2.4-2.1,3c-0.9,0.9-2.1,1.2-3.3,1.8c-1.2,0.3-2.7,0.6-4.5,0.6H407V131.8z"/>
		<polygon class="st0" points="451.8,108.9 439.4,108.9 439.4,103.2 471,103.2 471,108.9 458.7,108.9 458.7,137.8 451.8,137.8 		"/>
		<rect x="474.6" y="103.2" class="st0" width="6.9" height="34.5"/>
		<path class="st0" d="M495.9,136.9c-1.8-0.6-3.3-1.5-4.8-3c-1.2-1.2-2.4-3-3.3-5.4c-0.9-2.1-1.2-4.8-1.2-8.1s0.3-6,1.2-8.1
			c0.9-2.1,1.8-3.9,3.3-5.4c1.2-1.2,3-2.4,4.8-3c1.8-0.6,3.6-0.9,5.7-0.9h12.9v6h-11.7c-1.2,0-2.4,0.3-3.6,0.6
			c-1.2,0.3-2.1,0.9-2.7,1.8c-0.9,0.9-1.5,2.1-1.8,3.6c-0.6,1.5-0.6,3.3-0.6,5.4s0.3,3.9,0.6,5.4c0.6,1.5,1.2,2.7,1.8,3.6
			c0.9,0.9,1.8,1.5,2.7,1.8c1.2,0.3,2.1,0.6,3.6,0.6h11.7v6h-12.9C499.8,137.8,497.7,137.5,495.9,136.9"/>
		<path class="st0" d="M521.1,131.8h18c1.2,0,2.4-0.3,3.3-0.9c0.9-0.6,1.5-1.8,1.5-3.3s-0.6-2.7-1.5-3.3s-2.1-0.9-3.3-0.9h-8.4
			c-1.5,0-3-0.3-4.5-0.6c-1.2-0.3-2.4-0.9-3.3-1.8c-0.9-0.9-1.5-1.8-2.1-3c-0.6-1.2-0.6-3-0.6-4.8c0-1.8,0.3-3.6,0.6-4.8
			c0.6-1.2,1.2-2.4,2.1-3c0.9-0.9,2.1-1.2,3.3-1.8c1.2-0.3,2.7-0.6,4.5-0.6h18.9v6h-18c-1.2,0-2.4,0.3-3.3,0.9
			c-0.9,0.6-1.5,1.8-1.5,3.3s0.6,2.7,1.5,3.3c0.9,0.6,2.1,0.9,3.3,0.9h8.4c1.5,0,3,0.3,4.5,0.6c1.2,0.3,2.4,0.9,3.3,1.8
			c0.9,0.9,1.5,1.8,2.1,3c0.6,1.2,0.6,3,0.6,4.8s-0.3,3.6-0.6,4.8c-0.6,1.2-1.2,2.4-2.1,3c-0.9,0.9-2.1,1.2-3.3,1.8
			c-1.2,0.3-2.7,0.6-4.5,0.6h-18.9V131.8z"/>
		<path class="st0" d="M276.9,91.5h9.3v27.6c0,2.1,0.3,3.6,0.9,5.1c0.6,1.2,1.5,2.4,2.4,3.3c1.2,0.9,2.4,1.5,3.9,1.8
			c1.5,0.3,3,0.6,4.5,0.6h11.7v7.8h-11.7c-3,0-5.7-0.3-8.1-0.9c-2.4-0.6-4.8-1.5-6.6-3c-1.8-1.5-3.3-3.3-4.5-5.7
			c-1.2-2.4-1.8-5.1-1.8-8.7L276.9,91.5L276.9,91.5z"/>
	</g>
	<g>
		<path class="st0" d="M253.8,56.9c0-3.3,0.3-6,1.2-8.4c0.9-2.4,2.1-4.2,3.6-5.7c1.5-1.5,3.3-2.4,5.4-3c2.1-0.6,4.2-0.9,6.6-0.9
			c2.4,0,4.5,0.3,6.6,0.9s3.9,1.5,5.4,3c1.5,1.5,2.7,3.3,3.6,5.7c0.9,2.4,1.2,5.1,1.2,8.4c0,3.3-0.3,6-1.2,8.4
			c-0.9,2.4-2.1,4.2-3.6,5.7c-1.5,1.5-3.3,2.4-5.4,3c-2.1,0.6-4.2,0.9-6.6,0.9s-4.5-0.3-6.6-0.9c-2.1-0.6-3.9-1.5-5.4-3
			c-1.5-1.5-2.7-3.3-3.6-5.7C254.1,62.9,253.8,60.2,253.8,56.9 M270.6,68.9c1.2,0,2.7-0.3,3.9-0.6c1.2-0.3,2.1-0.9,3-1.8
			c0.9-0.9,1.5-2.1,2.1-3.6c0.6-1.5,0.9-3.6,0.9-5.7c0-2.4-0.3-4.2-0.9-5.7c-0.6-1.5-1.2-2.7-2.1-3.6c-0.9-0.9-1.8-1.5-3-1.8
			c-1.2-0.3-2.4-0.6-3.9-0.6s-2.7,0.3-3.9,0.6c-1.2,0.3-2.1,0.9-3,1.8c-0.9,0.9-1.5,2.1-2.1,3.6c-0.6,1.5-0.9,3.6-0.9,5.7
			c0,2.4,0.3,4.2,0.9,5.7c0.6,1.5,1.2,2.7,2.1,3.6c0.9,0.9,1.8,1.5,3,1.8C267.9,68.9,269.1,68.9,270.6,68.9"/>
		<path class="st0" d="M292,39.5h6.9v20.1c0,1.8,0.3,3.3,0.6,4.5c0.6,1.2,1.2,2.1,1.8,2.7c0.9,0.6,1.8,1.2,2.7,1.5
			c1.2,0.3,2.1,0.3,3.6,0.3c1.2,0,2.4,0,3.3-0.3c1.2-0.3,2.1-0.9,2.7-1.5c0.9-0.6,1.5-1.5,1.8-2.7c0.6-1.2,0.6-2.7,0.6-4.5V39.5h6.9
			v20.1c0,3-0.3,5.4-1.2,7.2c-0.9,1.8-2.1,3.6-3.3,4.5c-1.5,1.2-3,2.1-5.1,2.4c-1.8,0.6-3.9,0.6-6,0.6s-4.2-0.3-6-0.6
			c-1.8-0.6-3.6-1.2-5.1-2.4c-1.5-1.2-2.7-2.7-3.3-4.5c-0.9-1.8-1.2-4.2-1.2-7.2L292,39.5L292,39.5z"/>
		<polygon class="st0" points="339.1,45.5 326.5,45.5 326.5,39.5 358.3,39.5 358.3,45.5 346,45.5 346,74.3 339.1,74.3 		"/>
		<polygon class="st0" points="361.6,39.5 368.6,39.5 368.6,53.9 384.5,53.9 384.5,39.5 391.4,39.5 391.4,74.3 384.5,74.3 
			384.5,59.9 368.6,59.9 368.6,74.3 361.6,74.3 		"/>
		<path class="st0" d="M475.2,39.8h7.5L498,74.3h-7.8l-3-6.9h-17.1l-3,6.9h-7.8L475.2,39.8z M485.1,61.4l-6-14.1l-6,14.1H485.1z"/>
		<path class="st0" d="M507.9,73.4c-1.8-0.6-3.3-1.5-4.8-3c-1.2-1.2-2.4-3-3.3-5.4c-0.9-2.1-1.2-4.8-1.2-8.1c0-3.3,0.3-6,1.2-8.1
			c0.9-2.1,1.8-3.9,3.3-5.4c1.2-1.2,3-2.4,4.8-3c1.8-0.6,3.6-0.9,5.7-0.9h12.9v6h-11.7c-1.2,0-2.4,0.3-3.6,0.6
			c-1.2,0.3-2.1,0.9-2.7,1.8c-0.9,0.9-1.5,2.1-1.8,3.6c-0.6,1.5-0.6,3.3-0.6,5.4c0,2.1,0.3,3.9,0.6,5.4c0.6,1.5,1.2,2.7,1.8,3.6
			c0.9,0.9,1.8,1.5,2.7,1.8c1.2,0.3,2.1,0.6,3.6,0.6h11.7v6h-12.9C511.9,74.3,509.7,74,507.9,73.4"/>
		<rect x="532.9" y="39.8" class="st0" width="6.9" height="34.5"/>
		<path class="st0" d="M546.4,56c0-3,0.3-5.7,1.2-7.5c0.9-2.1,1.8-3.6,3.3-5.1c1.2-1.2,3-2.1,4.8-2.7c1.8-0.6,3.6-0.9,5.7-0.9h12.9
			v6h-11.7c-1.2,0-2.1,0-3.3,0.3c-0.9,0.3-1.8,0.6-2.7,1.5c-0.9,0.6-1.5,1.5-1.8,2.7c-0.6,1.2-0.9,2.4-0.9,3.9h20.7v6h-20.7v14.4
			H547V56H546.4z"/>
		<rect x="579.7" y="39.8" class="st0" width="6.9" height="34.5"/>
		<path class="st0" d="M601.1,73.4c-1.8-0.6-3.3-1.5-4.8-3c-1.2-1.2-2.4-3-3.3-5.4c-0.9-2.1-1.2-4.8-1.2-8.1c0-3.3,0.3-6,1.2-8.1
			c0.9-2.1,1.8-3.9,3.3-5.4c1.2-1.2,3-2.4,4.8-3c1.8-0.6,3.6-0.9,5.7-0.9h12.9v6H608c-1.2,0-2.4,0.3-3.6,0.6
			c-1.2,0.3-2.1,0.9-2.7,1.8c-0.9,0.9-1.5,2.1-1.8,3.6c-0.6,1.5-0.6,3.3-0.6,5.4c0,2.1,0.3,3.9,0.6,5.4c0.6,1.5,1.2,2.7,1.8,3.6
			c0.9,0.9,1.8,1.5,2.7,1.8c1.2,0.3,2.1,0.6,3.6,0.6h11.7v6h-12.9C605,74.3,602.9,74,601.1,73.4"/>
		<path class="st0" d="M209,66.2h24c1.8,0,3.3-0.3,4.5-1.2c1.2-0.9,1.8-2.4,1.8-4.5c0-2.1-0.6-3.6-1.8-4.2c-1.2-0.9-2.7-1.2-4.5-1.2
			H222c-2.1,0-4.2-0.3-5.7-0.6c-1.8-0.6-3.3-1.2-4.5-2.4c-1.2-1.2-2.1-2.4-2.7-4.2c-0.6-1.8-0.9-3.9-0.9-6.3s0.3-4.8,0.9-6.3
			c0.6-1.8,1.5-3,2.7-4.2c1.2-1.2,2.7-1.8,4.5-2.1c1.8-0.3,3.6-0.6,5.7-0.6h25.2v7.8h-24c-1.8,0-3.3,0.3-4.5,1.2
			c-1.2,0.9-1.8,2.4-1.8,4.5s0.6,3.6,1.8,4.2c1.2,0.9,2.7,1.2,4.5,1.2h11.1c2.1,0,4.2,0.3,5.7,0.6c1.8,0.6,3.3,1.2,4.5,2.4
			c1.2,1.2,2.1,2.4,2.7,4.2c0.6,1.8,0.9,3.9,0.9,6.3c0,2.7-0.3,4.8-0.9,6.3c-0.6,1.8-1.5,3-2.7,4.2c-1.2,1.2-2.7,1.8-4.5,2.1
			c-1.8,0.3-3.6,0.6-5.7,0.6H209V66.2z"/>
		<path class="st0" d="M420.5,28h26.7c2.1,0,4.2,0.3,6,0.9c1.8,0.6,3.6,1.5,4.8,2.7c1.5,1.2,2.4,2.7,3.3,4.8
			c0.9,1.8,1.2,4.2,1.2,7.2s-0.3,5.4-1.2,7.5c-0.9,2.1-1.8,3.6-3.3,4.8c-1.5,1.2-3,2.1-4.8,2.7c-1.8,0.6-3.9,0.9-6,0.9h-17.4v15
			h-9.3L420.5,28L420.5,28z M447.3,51.2c0.9,0,1.5,0,2.4-0.3s1.5-0.6,2.1-1.2c0.6-0.6,0.9-1.5,1.2-2.4c0.3-0.9,0.6-2.4,0.6-3.9
			c0-2.7-0.6-4.5-1.8-5.7c-1.2-1.2-2.7-1.5-4.5-1.5h-17.4v15H447.3z"/>
	</g>
	<rect x="207.6" y="80.8" class="st0" width="411.9" height="4.2"/>
</g>
<g>
	<path class="st0" d="M66.1,88.6c-3.3-3-7,0-7,0L43,102.6c-7.3,3.8-11.1,4.5-20.6-5.5s-0.5-20.9-0.5-20.9s50-50.3,54.3-53.8
		c4.3-3.8,19.9-8.5,29.7,5s-0.5,26.4-0.5,26.4L92.7,66.9c0,0,21.6,20.6,23.6,22.4c2,2.3,4.3,2.3,7,0.3c2.5-2,27.2-27.7,27.2-27.7
		S108.1,19.2,95.8,6.6s-25.6,0-25.6,0L5.5,70.7C-4.3,80.5,5,94.6,5,94.6l31.2,30.9l29.7-29.9C66.1,95.6,69.4,91.6,66.1,88.6"/>
	<path class="st0" d="M160.1,71.2c0,0-24.6,26.2-33.2,31.9c-8.5,5.8-18.1-1-18.1-1S83.9,77.5,78.2,72.7c-5.8-5-1.5-8.5-1.5-8.5
		l18.6-19.4c2-3.3,2.3-8-0.8-11.3c-2.5-2.5-8.3-3.5-11.6,0c-2.8,2.8-47.5,47.3-47.5,47.3s-4.3,3.5-1,6.8c3,3.3,7,0,7,0
		S51.5,77.5,55,75c3.5-2.5,10.1-7.3,21.1,2s4,21.9,4,21.9L46,134.6l24.1,23.9c0,0,5.5,5.8,13.6,5.5c6.8-0.3,12.1-5,12.1-5l64.9-64.4
		C170.4,82.5,160.1,71.2,160.1,71.2"/>
	<path class="st0" d="M159.1,55.1c0-4.5,3.8-8,8.3-8s8.3,3.5,8.3,8s-3.8,8-8.3,8C162.6,63.2,159.1,59.6,159.1,55.1"/>
	<path id="SVGID_4_" class="st0" d="M159.1,55.1c0,4.5,3.8,8,8.3,8s8.3-3.5,8.3-8s-3.8-8-8.3-8C162.6,47.1,159.1,50.8,159.1,55.1"/>
	<path class="st0" d="M21.1,141.4c0-4.5,3.8-8,8.3-8s8.3,3.5,8.3,8s-3.8,8-8.3,8C24.9,149.4,21.1,145.9,21.1,141.4"/>
</g>
</svg>
